mtllib BrickCube_512.mtl

o BrickCube_512
v -0.5 -0.5  0.5
v  0.5 -0.5  0.5
v  0.5  0.5  0.5
v -0.5  0.5  0.5
v -0.5 -0.5 -0.5
v  0.5 -0.5 -0.5
v  0.5  0.5 -0.5
v -0.5  0.5 -0.5

# Cube net: front with left/right/back in a row, top and bottom attached to front.
# OBJ v is inverted by the loader, so these values encode the intended net UV coordinates.
vt 0.25 0.666666667
vt 0.50 0.666666667
vt 0.50 0.333333333
vt 0.25 0.333333333
vt 0.00 0.666666667
vt 0.75 0.333333333
vt 0.75 0.666666667
vt 1.00 0.666666667
vt 0.25 0.000000000
vt 0.50 0.000000000
vt 0.25 1.000000000
vt 0.50 1.000000000
vt 1.00 0.666666667
vt 1.00 0.333333333
vt 0.00 0.333333333

vn  0.0  0.0  1.0
vn  0.0  0.0 -1.0
vn  1.0  0.0  0.0
vn -1.0  0.0  0.0
vn  0.0  1.0  0.0
vn  0.0 -1.0  0.0

usemtl brick
f 1/1/1 2/2/1 3/3/1
f 3/3/1 4/4/1 1/1/1
f 6/7/2 5/13/2 8/14/2
f 8/14/2 7/6/2 6/7/2
f 2/2/3 6/7/3 7/6/3
f 7/6/3 3/3/3 2/2/3
f 5/5/4 1/1/4 4/4/4
f 4/4/4 8/15/4 5/5/4
f 4/4/5 3/3/5 7/10/5
f 7/10/5 8/9/5 4/4/5
f 5/11/6 6/12/6 2/2/6
f 2/2/6 1/1/6 5/11/6
